# xmcd
# 
# Track frame offsets:
#   300
#   14723
#   33709
#   50952
#   69065
#   91120
#   114039
#   130886
#   149845
#   167820
#   184913
#   202081
#   218769
#   233531
#   251419
# 
# Disc length: 3573 seconds
# 
# Revision: 2
# Processed by: cddbd v1.5.2PL0 Copyright (c) Steve Scherf et al.
# Submitted via: Synapstar 1.0 
# 
DISCID=dc0df10f
DTITLE=Various Artist - Chartbuster Karaoke Country hits of May 2009
DYEAR=1900
DGENRE=Country
TTITLE0=Alan Jackson - Sissy's Song
TTITLE1=Blake Shelton - I'll Just Hold On
TTITLE2=Justin Moore - Small Town U.S.A.
TTITLE3=Billy Currington - People Are Crazy
TTITLE4=Jamey Johnson - High Cost Of Living
TTITLE5=Taylor Swift - Fifteen
TTITLE6=Chris Young - Gettin' You Home
TTITLE7=John Rich - Shuttin' Detroit Down
TTITLE8=Jessica Harp - Boy Like Me
TTITLE9=Toby Keith - Lost You Anyway
TTITLE10=Gloriana - Wild At Heart
TTITLE11=Bomshell - Fight Like A Girl
TTITLE12=Dierks Bentley - Sideways
TTITLE13=Pat Green - Country Star
TTITLE14=Zac Brown Band - Whatever It Is
EXTD=MediaType: Karaoke CD+G Producer: Chartbuster
EXTT0=
EXTT1=
EXTT2=
EXTT3=
EXTT4=
EXTT5=
EXTT6=
EXTT7=
EXTT8=
EXTT9=
EXTT10=
EXTT11=
EXTT12=
EXTT13=
EXTT14=
PLAYORDER=
